<svg width="211" height="86" viewBox="0 0 211 86" fill="none" xmlns="http://www.w3.org/2000/svg">
<path d="M41.8026 65.624H43.8346C43.3706 65.992 43.0986 66.52 43.0986 67.144C43.0986 68.216 43.8666 69.112 45.0186 69.24V71.176H39.5786V71.8H51.0986V71.176H45.6586V69.24C46.8106 69.112 47.5786 68.216 47.5786 67.144C47.5786 66.52 47.3066 65.992 46.8426 65.624H48.8746V65.032H45.6746V63.128H45.0186V65.032H41.8026V65.624ZM47.7866 75.848C47.7866 74.584 46.8586 73.592 45.3386 73.592C43.8506 73.592 42.8906 74.584 42.8906 75.848C42.8906 77.112 43.8506 78.104 45.3386 78.104C46.8586 78.104 47.7866 77.112 47.7866 75.848ZM43.5466 75.848C43.5466 74.904 44.2346 74.216 45.3386 74.216C46.4426 74.216 47.1306 74.904 47.1306 75.848C47.1306 76.792 46.4426 77.48 45.3386 77.48C44.2346 77.48 43.5466 76.792 43.5466 75.848ZM45.3386 68.648C44.3786 68.648 43.7546 68.024 43.7546 67.128C43.7546 66.264 44.3786 65.608 45.3386 65.608C46.2986 65.608 46.9226 66.264 46.9226 67.128C46.9226 68.024 46.2986 68.648 45.3386 68.648ZM55.5093 65.704H54.8533V66.84C53.4613 66.984 52.6453 67.976 52.6453 69.192C52.6453 70.52 53.6053 71.576 55.1893 71.576C56.7733 71.576 57.7333 70.52 57.7333 69.192C57.7333 67.976 56.9013 66.984 55.5093 66.84V65.704ZM55.1893 70.952C54.0053 70.952 53.2853 70.168 53.2853 69.192C53.2853 68.232 54.0053 67.432 55.1893 67.432C56.3733 67.432 57.0933 68.232 57.0933 69.192C57.0933 70.168 56.3733 70.952 55.1893 70.952ZM61.9093 73.672H55.5733V74.312H61.2533V77.8H61.9093V73.672ZM61.9093 64.152L60.1173 63.224L59.8613 63.704L61.2533 64.52V72.104H61.9093V64.152ZM65.4014 66.792H69.2894V66.168H64.7454V71.8H69.7694V71.176H65.4014V66.792ZM71.9134 72.104H72.5694V68.776H74.8894V72.104H75.5454V64.152L73.7214 63.224L73.4654 63.704L74.8894 64.52V68.152H72.5694V64.904L70.7454 63.976L70.4894 64.456L71.9134 65.272V72.104ZM77.6203 66.936H79.4763C79.0123 67.32 78.7563 67.864 78.7563 68.472C78.7563 69.656 79.6843 70.6 81.0603 70.6C82.4363 70.6 83.3643 69.656 83.3643 68.472C83.3643 67.864 83.0923 67.32 82.6443 66.936H84.5003V66.344H81.3963V64.248H80.7403V66.344H77.6203V66.936ZM81.0603 69.992C80.0523 69.992 79.4123 69.368 79.4123 68.456C79.4123 67.576 80.0523 66.92 81.0603 66.92C82.0683 66.92 82.7083 67.576 82.7083 68.456C82.7083 69.368 82.0683 69.992 81.0603 69.992ZM86.9483 72.104H87.6043V68.264H89.9723V67.64H87.6043V64.152L85.8123 63.224L85.5563 63.704L86.9483 64.52V72.104ZM87.6043 73.672H81.2683V74.312H86.9483V77.8H87.6043V73.672ZM90.6723 71.8H102.192V71.176H96.7843V67.864H96.1283V71.176H94.3363V67.864H93.6803V71.176H90.6723V71.8ZM99.1843 64.376H93.8083V65.016H98.5283V69.272H99.1843V64.376ZM115.583 75.848C115.583 74.584 114.655 73.592 113.135 73.592C111.647 73.592 110.687 74.584 110.687 75.848C110.687 77.112 111.647 78.104 113.135 78.104C114.655 78.104 115.583 77.112 115.583 75.848ZM111.343 75.848C111.343 74.904 112.031 74.216 113.135 74.216C114.239 74.216 114.927 74.904 114.927 75.848C114.927 76.792 114.239 77.48 113.135 77.48C112.031 77.48 111.343 76.792 111.343 75.848ZM107.375 71.624H118.895V71H112.495V67.976H111.823V71H107.375V71.624ZM115.887 64.376H110.511V65.016H115.231V69.272H115.887V64.376ZM130.074 64.152L128.282 63.224L128.026 63.704L129.418 64.52V72.104H130.074V64.152ZM120.282 71.256L120.682 71.688L123.466 69.192L126.25 71.688L126.65 71.256L123.802 68.6V66.856H126.41V66.248H120.522V66.856H123.13V68.6L120.282 71.256ZM136.634 71.496L137.034 71.912L139.802 69.368L142.57 71.912L142.97 71.496L140.138 68.776V65.96H139.466V68.776L136.634 71.496ZM145.898 72.104H146.554V64.152L144.762 63.224L144.506 63.704L145.898 64.52V67.832H143.034V68.456H145.898V72.104ZM149.386 71.8H154.122V65.992L152.97 65.32L152.682 65.768L153.482 66.328V68.232H150.026V66.664L149.018 66.04L148.73 66.488L149.386 66.968V71.8ZM150.026 71.176V68.856H153.482V71.176H150.026ZM157.546 72.104H158.202V64.152L156.41 63.224L156.154 63.704L157.546 64.52V72.104ZM162.115 68.456L162.515 68.92L165.667 66.376L168.819 68.92L169.219 68.456L166.003 65.784V63.72H165.331V65.784L162.115 68.456ZM159.907 71.8H171.427V71.176H159.907V71.8Z" fill="white"/>
<path d="M69.078 7.4H65.198V10.52C61.878 11.24 59.918 13.84 59.918 16.88C59.918 20.6 62.678 23.52 67.118 23.52C71.598 23.52 74.358 20.6 74.358 16.88C74.358 13.84 72.358 11.24 69.078 10.52V7.4ZM67.118 20.44C65.038 20.44 63.598 19 63.598 16.88C63.598 14.8 65.038 13.36 67.118 13.36C69.238 13.36 70.678 14.8 70.678 16.88C70.678 19 69.238 20.44 67.118 20.44ZM85.998 3.72L80.118 0.879999C79.638 1.76 79.158 2.64 78.718 3.52C79.838 4.2 80.998 4.96 82.118 5.68V23.76H85.998V3.72ZM90.7389 23.68H103.819V35.96H107.739V23.68H120.819V20.48H90.7389V23.68ZM97.8989 16.72H114.019V13.48H101.859V3.76H97.8989V16.72ZM145.59 32.56C145.59 28.8 142.35 26.32 138.63 26.32C134.95 26.32 131.67 28.8 131.67 32.56C131.67 36.28 134.95 38.76 138.63 38.76C142.35 38.76 145.59 36.28 145.59 32.56ZM135.31 32.56C135.31 30.64 136.95 29.4 138.63 29.4C140.27 29.4 141.95 30.64 141.95 32.56C141.95 34.52 140.27 35.72 138.63 35.72C136.95 35.72 135.31 34.52 135.31 32.56ZM123.59 23.64H153.67V20.44H137.87V12.88H133.91V20.44H123.59V23.64ZM145.95 4.04H131.27V7.36H142.07V17.16H145.95V4.04Z" fill="white"/>
<line x1="39" y1="53.85" x2="173" y2="53.85" stroke="white" stroke-width="0.3"/>
<line x1="39" y1="85.85" x2="173" y2="85.85" stroke="white" stroke-width="0.3"/>
</svg>
