<svg width="39" height="17" viewBox="0 0 39 17" fill="none" xmlns="http://www.w3.org/2000/svg">
<path d="M4.23119 3.56H2.67919V4.808C1.35119 5.096 0.567188 6.136 0.567188 7.352C0.567188 8.84 1.67119 10.008 3.44719 10.008C5.23919 10.008 6.34319 8.84 6.34319 7.352C6.34319 6.136 5.54319 5.096 4.23119 4.808V3.56ZM3.44719 8.776C2.61519 8.776 2.03919 8.2 2.03919 7.352C2.03919 6.52 2.61519 5.944 3.44719 5.944C4.29519 5.944 4.87119 6.52 4.87119 7.352C4.87119 8.2 4.29519 8.776 3.44719 8.776ZM10.9992 2.088L8.64719 0.952C8.45519 1.304 8.26319 1.656 8.08719 2.008C8.53519 2.28 8.99919 2.584 9.44719 2.872V10.104H10.9992V2.088ZM12.8956 10.072H18.1276V14.984H19.6956V10.072H24.9276V8.792H12.8956V10.072ZM15.7596 7.288H22.2076V5.992H17.3436V2.104H15.7596V7.288ZM34.8362 13.624C34.8362 12.12 33.5402 11.128 32.0522 11.128C30.5802 11.128 29.2682 12.12 29.2682 13.624C29.2682 15.112 30.5802 16.104 32.0522 16.104C33.5402 16.104 34.8362 15.112 34.8362 13.624ZM30.7242 13.624C30.7242 12.856 31.3802 12.36 32.0522 12.36C32.7082 12.36 33.3802 12.856 33.3802 13.624C33.3802 14.408 32.7082 14.888 32.0522 14.888C31.3802 14.888 30.7242 14.408 30.7242 13.624ZM26.0362 10.056H38.0682V8.776H31.7482V5.752H30.1642V8.776H26.0362V10.056ZM34.9802 2.216H29.1082V3.544H33.4282V7.464H34.9802V2.216Z" fill="white"/>
</svg>
