<svg width="125" height="123" viewBox="0 0 125 123" fill="none" xmlns="http://www.w3.org/2000/svg">
<path d="M80.749 53.4591H76.9097L75.5489 52.1469C80.3116 46.6066 83.179 39.414 83.179 31.5895C83.179 14.1424 69.0366 0 51.5895 0C34.1424 0 20 14.1424 20 31.5895C20 49.0366 34.1424 63.179 51.5895 63.179C59.414 63.179 66.6066 60.3116 72.1469 55.5489L73.4591 56.9097V60.749L97.7587 85L105 77.7587L80.749 53.4591ZM51.5895 53.4591C39.4883 53.4591 29.7198 43.6907 29.7198 31.5895C29.7198 19.4883 39.4883 9.71984 51.5895 9.71984C63.6907 9.71984 73.4591 19.4883 73.4591 31.5895C73.4591 43.6907 63.6907 53.4591 51.5895 53.4591Z" fill="white"/>
<path d="M8.576 111.432V113.144H12.032V111.432H8.576ZM10.912 107.624V118.424H13.04V107.624H10.912ZM3.264 120.472V122.168H13.376V120.472H3.264ZM3.264 117.512V121.48H5.392V117.512H3.264ZM4.064 109.56V110.488C4.064 112.36 3.008 114.296 0.56 115.096L1.632 116.792C4.48 115.848 5.792 113.272 5.792 110.488V109.56H4.064ZM4.512 109.56V110.488C4.512 113.128 5.776 115.592 8.528 116.504L9.568 114.84C7.232 114.056 6.224 112.216 6.224 110.488V109.56H4.512ZM1.136 108.616V110.296H9.104V108.616H1.136ZM21.3908 113.224V114.936H23.7428V113.224H21.3908ZM17.9508 111.72V112.104C17.9508 114.376 17.1988 116.808 15.0868 118.04L16.2868 119.64C18.6548 118.28 19.5508 115.192 19.5508 112.104V111.72H17.9508ZM18.3668 111.72V112.104C18.3668 115.144 19.2788 118.04 21.6788 119.288L22.8308 117.72C20.7348 116.6 19.9668 114.344 19.9668 112.104V111.72H18.3668ZM15.6468 110.088V111.8H22.2548V110.088H15.6468ZM17.9508 108.104V111.48H19.9668V108.104H17.9508ZM26.0628 107.608V122.424H28.0788V107.608H26.0628ZM23.0708 107.848V121.752H25.0548V107.848H23.0708ZM40.3265 116.824C37.1265 116.824 35.0785 117.88 35.0785 119.64C35.0785 121.368 37.1265 122.424 40.3265 122.424C43.5265 122.424 45.5745 121.368 45.5745 119.64C45.5745 117.88 43.5265 116.824 40.3265 116.824ZM40.3265 118.424C42.3265 118.424 43.4625 118.84 43.4625 119.64C43.4625 120.424 42.3265 120.824 40.3265 120.824C38.3265 120.824 37.1905 120.424 37.1905 119.64C37.1905 118.84 38.3265 118.424 40.3265 118.424ZM35.2385 108.264V109.944H44.6145V108.264H35.2385ZM33.7345 114.216V115.912H47.0785V114.216H33.7345ZM38.6785 111.64V114.648H40.7905V111.64H38.6785ZM43.3825 108.264V109.48C43.3825 110.632 43.3825 111.704 42.9825 113.224L45.0945 113.448C45.4945 111.912 45.4945 110.648 45.4945 109.48V108.264H43.3825ZM51.9893 109.944V111.608C51.9893 114.12 50.7893 116.856 48.3092 117.96L49.5093 119.64C52.2933 118.376 53.6853 115.032 53.6853 111.608V109.944H51.9893ZM52.4693 109.944V111.608C52.4693 114.904 53.8453 118.056 56.6613 119.272L57.8133 117.592C55.3333 116.568 54.1493 114.008 54.1493 111.608V109.944H52.4693ZM48.9013 109.032V110.776H57.2053V109.032H48.9013ZM58.5813 107.608V122.424H60.7253V107.608H58.5813ZM66.468 108.744V110.904C66.468 113.656 65.332 116.504 62.836 117.672L64.116 119.384C66.916 118.008 68.196 114.568 68.196 110.904V108.744H66.468ZM66.9 108.744V110.904C66.9 114.456 68.068 117.752 70.74 119.112L72.02 117.416C69.652 116.264 68.596 113.56 68.596 110.904V108.744H66.9ZM72.612 107.608V122.424H74.756V107.608H72.612ZM74.276 113.304V115.08H76.9V113.304H74.276ZM87.3948 107.608V117H89.5228V107.608H87.3948ZM88.9308 111.384V113.128H91.4908V111.384H88.9308ZM84.7068 117.16C81.6508 117.16 79.7308 118.136 79.7308 119.8C79.7308 121.448 81.6508 122.424 84.7068 122.424C87.7628 122.424 89.6828 121.448 89.6828 119.8C89.6828 118.136 87.7628 117.16 84.7068 117.16ZM84.7068 118.76C86.5788 118.76 87.5708 119.096 87.5708 119.8C87.5708 120.504 86.5788 120.84 84.7068 120.84C82.8348 120.84 81.8428 120.504 81.8428 119.8C81.8428 119.096 82.8348 118.76 84.7068 118.76ZM77.8588 109.016V110.664H86.5788V109.016H77.8588ZM82.2268 111.16C80.0668 111.16 78.5788 112.232 78.5788 113.816C78.5788 115.416 80.0668 116.472 82.2268 116.472C84.3708 116.472 85.8588 115.416 85.8588 113.816C85.8588 112.232 84.3708 111.16 82.2268 111.16ZM82.2268 112.712C83.1708 112.712 83.8268 113.096 83.8268 113.816C83.8268 114.536 83.1708 114.92 82.2268 114.92C81.2668 114.92 80.6268 114.536 80.6268 113.816C80.6268 113.096 81.2668 112.712 82.2268 112.712ZM81.1548 107.512V109.896H83.2828V107.512H81.1548ZM101.611 108.456V109.464C101.611 111.736 99.8025 113.624 96.2665 114.584L97.0985 116.232C101.435 115.048 103.835 112.36 103.835 108.456H101.611ZM97.0825 108.456V110.136H103.083V108.456H97.0825ZM106.475 107.608V115.896H108.603V107.608H106.475ZM103.915 111.112V112.84H106.779V111.112H103.915ZM98.8425 116.488V122.264H108.603V116.488H98.8425ZM106.507 118.168V120.584H100.939V118.168H106.507ZM113.593 108.456V110.152C113.593 111.832 112.777 113.672 110.713 114.584L111.833 116.232C114.249 115.192 115.257 112.68 115.257 110.152V108.456H113.593ZM113.977 108.456V110.152C113.977 112.616 114.953 114.888 117.257 115.832L118.377 114.216C116.425 113.4 115.641 111.8 115.641 110.152V108.456H113.977ZM121.529 107.624V116.6H123.545V107.624H121.529ZM119.753 111.208V112.936H122.105V111.208H119.753ZM118.393 107.848V116.52H120.377V107.848H118.393ZM113.369 117.24V118.936H121.433V122.424H123.545V117.24H113.369Z" fill="white"/>
</svg>
